<svg width="136" height="35" viewBox="0 0 136 35" fill="none" xmlns="http://www.w3.org/2000/svg">
<path d="M60.616 23.232C58.288 22.608 55.504 22.464 52.288 22.68C51.808 22.704 51.4 22.752 51.016 22.8C51.016 22.824 51.016 22.848 51.064 22.848C51.256 23.016 51.232 23.184 50.992 23.352C49.816 23.832 49.216 24.48 49.216 25.272C49.168 26.064 48.976 26.496 48.688 26.568C46.96 27.264 45.664 27.6 44.824 27.576C44.32 27.624 44.248 27.504 44.608 27.192C45.28 26.688 46 26.208 46.792 25.728C47.776 25.032 48.616 24.12 49.384 22.968C46.984 23.28 45.04 23.64 43.576 24.12C43.408 24.24 43.144 24 42.808 23.4C42.448 22.8 42.616 22.608 43.408 22.824C44.8 22.536 46.36 22.272 48.088 21.96C47.992 20.784 47.992 19.56 48.112 18.288C48.16 16.872 48.256 15.552 48.4 14.352C48.4 13.872 48.496 13.656 48.712 13.656C48.856 13.68 49.12 13.632 49.504 13.512C49.792 13.44 50.104 13.344 50.44 13.224C50.656 12.816 50.872 12.264 51.064 11.544C49.552 11.856 48.712 12.072 48.52 12.216C47.92 12.552 47.56 12.576 47.512 12.288C47.44 12 47.296 11.688 47.128 11.352C46.936 11.016 46.936 10.848 47.176 10.824C47.368 10.824 47.56 10.824 47.848 10.776C48.688 10.632 49.864 10.464 51.376 10.224V10.176C51.64 8.616 51.76 7.632 51.712 7.176C51.616 6.84 51.976 6.768 52.792 6.912C53.536 7.104 53.824 7.368 53.656 7.632C53.488 7.872 53.368 8.256 53.344 8.712C53.296 9.072 53.224 9.48 53.176 9.96C54.112 9.816 55.36 9.648 56.896 9.432C57.088 9.336 57.208 9.624 57.28 10.296C57.328 10.944 57.088 11.16 56.608 10.896C55.456 10.968 54.208 11.088 52.912 11.28C52.768 11.76 52.648 12.12 52.576 12.36C52.504 12.48 52.432 12.624 52.432 12.744C53.536 12.552 54.424 12.576 55.072 12.816C56.2 13.2 56.68 13.536 56.56 13.848C56.392 14.256 56.248 15.144 56.152 16.512C56.056 17.904 56.056 19.368 56.152 20.856C56.152 20.904 56.176 20.952 56.224 20.976C56.584 20.952 56.992 20.928 57.424 20.928C58.912 20.88 59.8 20.808 60.112 20.664C60.256 20.616 60.376 20.736 60.52 21.024C60.592 21.336 60.736 21.528 60.952 21.648C61.144 21.768 61.216 22.128 61.192 22.68C61.144 23.256 60.952 23.448 60.616 23.232ZM54.16 21.12C54.304 18.528 54.376 16.752 54.376 15.768C54.328 14.784 54.16 14.232 53.896 14.04C53.656 13.776 53.032 13.704 52.024 13.8C50.944 13.92 50.272 14.112 49.984 14.352C49.84 14.52 49.72 14.784 49.648 15.12C49.84 15.264 50.032 15.312 50.248 15.216C50.944 15.072 51.64 14.928 52.384 14.736C52.552 14.688 52.648 14.856 52.696 15.24C52.744 15.6 52.696 15.816 52.552 15.84C51.904 15.96 51.208 16.128 50.512 16.344C49.984 16.488 49.576 16.776 49.312 17.184C49.264 17.208 49.264 17.232 49.312 17.256C49.504 17.472 49.72 17.496 50.008 17.424C50.8 17.256 51.592 17.064 52.456 16.824C52.624 16.776 52.744 16.944 52.792 17.304C52.84 17.664 52.792 17.88 52.672 17.904C51.976 18.048 51.184 18.264 50.32 18.528C49.84 18.672 49.48 18.936 49.216 19.296C49.456 19.56 49.696 19.656 49.984 19.56C50.824 19.464 51.688 19.32 52.576 19.152C52.768 19.104 52.864 19.272 52.912 19.632C52.912 20.016 52.84 20.232 52.72 20.256C51.976 20.352 51.136 20.496 50.2 20.712C49.768 20.808 49.432 21 49.168 21.264C49.168 21.48 49.192 21.672 49.288 21.768C50.32 21.6 51.424 21.456 52.624 21.288C53.104 21.24 53.584 21.192 54.16 21.12ZM53.176 23.664C52.888 23.424 52.984 23.304 53.464 23.304C55.144 23.808 56.584 24.456 57.808 25.2C57.952 25.296 57.952 25.728 57.832 26.52C57.688 27.336 57.496 27.792 57.232 27.888C56.944 27.984 56.752 27.936 56.656 27.696C56.536 27.48 56.344 27.192 56.104 26.808C54.832 25.464 53.848 24.432 53.176 23.664ZM65.992 12.744H86.104V16.752H84.52V14.28H67.528V16.752H65.992V12.744ZM69.304 10.368L70.648 9.84C70.904 10.368 71.152 10.936 71.392 11.544C71.632 12.152 71.8 12.664 71.896 13.08L70.456 13.728C70.376 13.296 70.224 12.76 70 12.12C69.776 11.48 69.544 10.896 69.304 10.368ZM74.776 10.128L76.168 9.696C76.392 10.224 76.608 10.808 76.816 11.448C77.024 12.072 77.184 12.592 77.296 13.008L75.832 13.56C75.736 13.128 75.584 12.592 75.376 11.952C75.184 11.296 74.984 10.688 74.776 10.128ZM84.112 7.152L84.712 8.616C83.592 8.808 82.312 8.976 80.872 9.12C79.448 9.264 77.944 9.384 76.36 9.48C74.792 9.576 73.208 9.656 71.608 9.72C70.008 9.784 68.472 9.824 67 9.84C66.984 9.632 66.936 9.392 66.856 9.12C66.776 8.848 66.696 8.608 66.616 8.4C68.104 8.368 69.648 8.32 71.248 8.256C72.848 8.192 74.432 8.104 76 7.992C77.568 7.88 79.048 7.76 80.44 7.632C81.848 7.488 83.072 7.328 84.112 7.152ZM81.592 9.336L83.2 9.864C82.832 10.504 82.432 11.16 82 11.832C81.568 12.504 81.168 13.072 80.8 13.536L79.504 13.08C79.744 12.744 79.992 12.36 80.248 11.928C80.52 11.48 80.768 11.032 80.992 10.584C81.232 10.12 81.432 9.704 81.592 9.336ZM72.856 21C73.672 22.104 74.76 23.072 76.12 23.904C77.48 24.72 79.032 25.384 80.776 25.896C82.52 26.408 84.36 26.768 86.296 26.976C86.184 27.12 86.064 27.28 85.936 27.456C85.824 27.648 85.712 27.84 85.6 28.032C85.504 28.24 85.416 28.424 85.336 28.584C83.384 28.312 81.528 27.88 79.768 27.288C78.008 26.696 76.424 25.928 75.016 24.984C73.624 24.04 72.464 22.92 71.536 21.624L72.856 21ZM72.064 20.472H82.36V22.032H72.064V20.472ZM81.808 20.472H82.144L82.456 20.4L83.416 21.12C82.648 22.544 81.608 23.752 80.296 24.744C79 25.72 77.544 26.512 75.928 27.12C74.312 27.744 72.648 28.224 70.936 28.56C70.888 28.416 70.816 28.248 70.72 28.056C70.624 27.88 70.52 27.696 70.408 27.504C70.296 27.312 70.192 27.16 70.096 27.048C71.776 26.776 73.384 26.376 74.92 25.848C76.472 25.32 77.848 24.64 79.048 23.808C80.248 22.976 81.168 21.96 81.808 20.76V20.472ZM67.72 16.992H84.328V18.528H67.72V16.992ZM72.736 14.88L74.464 15.12C73.856 18.352 72.896 21.088 71.584 23.328C70.272 25.552 68.456 27.344 66.136 28.704C66.088 28.592 65.992 28.44 65.848 28.248C65.704 28.072 65.56 27.888 65.416 27.696C65.272 27.52 65.136 27.384 65.008 27.288C67.216 26.12 68.928 24.504 70.144 22.44C71.36 20.376 72.224 17.856 72.736 14.88ZM92.92 19.32C92.632 19.128 92.56 18.984 92.704 18.888C92.848 18.84 93.136 18.672 93.544 18.36C93.928 18.048 94.504 17.664 95.272 17.208C95.512 17.016 95.536 17.112 95.44 17.448C95.344 17.76 95.2 18.168 95.008 18.576C94.768 19.008 94.576 19.416 94.504 19.728C94.504 20.136 94.312 20.208 93.928 19.944C93.544 19.704 93.208 19.488 92.92 19.32ZM98.032 15.192C97.84 14.976 97.816 14.832 97.96 14.784C98.104 14.784 98.416 14.688 98.872 14.496C99.304 14.328 99.904 14.112 100.696 13.872C100.936 13.776 100.96 13.872 100.792 14.136C100.6 14.424 100.36 14.712 100.072 15.048C99.736 15.384 99.472 15.672 99.256 15.936C99.16 16.296 98.968 16.32 98.728 15.984C98.464 15.696 98.224 15.456 98.032 15.192ZM103.984 16.608C103.744 16.392 103.816 16.272 104.224 16.272C105.712 16.632 107.008 17.136 108.136 17.736C108.28 17.808 108.304 18.216 108.208 18.936C108.112 19.68 107.944 20.112 107.704 20.184C107.488 20.28 107.296 20.232 107.2 20.04C107.056 19.848 106.864 19.584 106.648 19.272C105.496 18.12 104.584 17.232 103.984 16.608ZM91.072 21.888C92.752 21.576 94.192 21.168 95.368 20.64C96.016 20.256 96.712 19.752 97.504 19.152C96.88 18.432 96.52 17.688 96.4 16.992C96.16 15.984 95.992 15.384 95.896 15.192C95.608 14.904 95.728 14.784 96.304 14.808C96.808 14.856 97.048 15.024 97.048 15.312C97.192 16.752 97.6 17.808 98.344 18.456C98.944 17.88 99.568 17.256 100.24 16.512C101.872 14.64 102.784 13.416 102.976 12.792C102.976 12.648 103.24 12.768 103.768 13.152C104.248 13.512 104.368 13.824 104.176 14.064C103.288 14.952 102.496 15.768 101.8 16.488C102.736 17.016 103.48 17.664 104.032 18.432C104.68 19.344 105.064 19.944 105.208 20.256C105.256 20.496 105.112 20.592 104.8 20.568C104.44 20.568 104.08 20.592 103.792 20.616C103.528 20.688 103.048 20.736 102.4 20.784C101.728 20.832 101.272 20.832 101.008 20.76C100.72 20.712 100.24 20.688 99.52 20.64C99.064 20.592 98.656 20.448 98.392 20.136C98.248 20.04 98.128 19.944 98.08 19.824C96.904 20.688 96.304 21.336 96.304 21.744C96.256 22.032 95.68 22.368 94.6 22.704C93.52 23.088 92.32 22.92 90.952 22.176C90.712 22.056 90.736 21.96 91.072 21.888ZM101.536 16.752C100.6 17.664 99.808 18.432 99.16 18.984C99.616 19.224 100.264 19.344 101.056 19.32C101.944 19.32 102.472 19.224 102.592 19.008C102.784 18.648 102.712 18.24 102.4 17.76C102.112 17.424 101.824 17.088 101.536 16.752ZM104.224 27.144C102.448 26.976 100.792 27 99.352 27.264C97.84 27.504 96.808 27.768 96.28 28.032C96.088 28.104 95.92 27.984 95.776 27.672C95.632 27.384 95.44 27.072 95.152 26.808C94.672 26.208 94.456 25.632 94.504 25.128C94.504 24.6 94.504 24.24 94.6 23.976C94.696 23.736 94.792 23.496 94.912 23.16C95.008 22.872 95.392 22.872 96.088 23.136C96.736 23.424 97 23.64 96.904 23.832C96.904 23.952 96.736 24.072 96.472 24.168C96.136 24.288 95.92 24.504 95.848 24.816C95.656 25.248 95.776 25.704 96.256 26.232C96.448 26.352 96.928 26.328 97.768 26.136C98.248 26.016 98.752 25.92 99.376 25.824C99.376 25.68 99.376 25.488 99.4 25.248C99.352 24.792 99.352 24.192 99.4 23.424C99.4 22.632 99.376 22.176 99.352 22.032C99.064 21.36 99.376 21.12 100.264 21.36C101.152 21.576 101.488 21.864 101.296 22.176C101.2 22.272 101.152 22.896 101.152 24.024C101.104 24.864 101.104 25.416 101.152 25.632C101.8 25.608 102.376 25.632 102.88 25.704C103.504 25.8 103.912 25.8 104.2 25.656C104.56 24.504 104.632 23.496 104.44 22.704C104.344 22.512 104.368 22.392 104.512 22.272C104.584 22.176 105.064 22.2 105.928 22.344C106.768 22.488 107.032 22.704 106.744 23.04C106.048 24.432 105.784 25.728 105.976 26.976C105.88 27.36 105.736 27.48 105.592 27.36C105.376 27.264 104.896 27.192 104.224 27.144ZM99.232 10.104C98.848 9.384 98.704 8.76 98.824 8.256C99.112 7.272 99.52 6.984 100.024 7.368C100.168 7.464 100.336 7.656 100.528 7.968C100.72 8.304 100.96 8.568 101.296 8.784C101.56 9.024 101.8 9.264 101.992 9.456C102.088 9.552 102.064 9.744 101.92 10.032C101.728 10.32 101.416 10.44 100.96 10.392C100.504 10.344 100.096 10.344 99.784 10.368C99.472 10.392 99.28 10.296 99.232 10.104ZM91.816 15.792C92.296 15.192 92.896 14.544 93.664 13.848C93.712 13.776 93.784 13.752 93.904 13.776C93.952 13.824 93.952 13.896 93.928 13.992C93.64 15.072 93.544 15.936 93.664 16.536C93.76 17.16 93.64 17.448 93.352 17.376C92.968 17.328 92.536 17.112 92.08 16.704C91.552 16.344 91.384 16.128 91.528 16.056C91.624 15.984 91.72 15.888 91.816 15.792ZM98.92 11.688C99.952 11.328 101.584 11.064 103.864 10.896C104.8 10.848 105.544 10.944 106.168 11.16C106.624 11.28 107.56 12.36 109.024 14.424C109.36 14.904 109.36 15.168 109.024 15.168C108.64 15.192 108.136 15.288 107.536 15.456C106.864 15.624 105.88 15.696 104.56 15.648C103.816 15.48 103.744 15.36 104.392 15.264C104.896 15.168 105.496 14.832 106.144 14.256C106.792 13.68 106.792 13.08 106.168 12.384C105.688 12 105.04 11.88 104.224 11.976C103.528 12.072 102.712 12.24 101.848 12.48C100.912 12.696 99.856 12.912 98.728 13.056C97.504 13.248 96.424 13.632 95.488 14.208C95.248 14.352 95.056 14.208 94.936 13.728C94.744 13.32 94.768 13.104 95.008 13.104C95.392 13.032 95.848 12.864 96.472 12.624C97.024 12.408 97.84 12.096 98.92 11.688ZM119.824 15.024C119.464 14.352 119.56 14.04 120.208 14.088C120.352 14.088 121.576 13.848 123.976 13.368C125.296 12.888 125.92 12.888 125.872 13.368C125.776 13.824 125.752 14.208 125.848 14.448C125.896 14.712 125.44 14.808 124.48 14.664C122.224 15.168 121.024 15.48 120.904 15.6C120.52 15.936 120.16 15.744 119.824 15.024ZM120.016 16.608C120.952 16.488 121.984 16.32 123.112 16.032C124.192 15.792 124.96 15.696 125.488 15.696C126.64 15.792 127.504 16.176 128.056 16.776C128.152 17.04 127.864 17.4 127.264 17.808C126.592 18.24 126.304 18.648 126.4 19.08C126.352 19.368 126.136 19.488 125.8 19.488C124.36 19.584 123.016 19.872 121.816 20.304C121.264 20.472 120.928 20.424 120.856 20.136C120.664 19.848 120.4 19.488 120.04 19.08C119.656 18.672 119.368 18.168 119.128 17.496C118.936 17.28 118.888 17.112 118.984 16.992C119.032 16.896 119.368 16.776 120.016 16.608ZM124.792 16.848C123.448 16.92 122.416 17.136 121.696 17.472C121.336 17.568 121.192 17.856 121.312 18.312C121.36 18.768 121.624 18.936 122.176 18.768C122.728 18.72 123.424 18.6 124.264 18.408C124.864 18.216 125.176 17.928 125.224 17.544C125.224 17.208 125.08 16.968 124.792 16.848ZM123.88 27C120.328 27.24 117.568 27.648 115.648 28.224C115.432 28.344 115.12 28.056 114.784 27.408C114.424 26.76 114.616 26.544 115.48 26.784C116.512 26.592 117.616 26.424 118.888 26.208C118.888 25.896 118.768 25.368 118.552 24.552C118.336 23.784 118.12 23.136 117.928 22.608C117.592 22.392 117.904 22.176 118.864 21.936C120.424 21.552 121.672 21.312 122.704 21.168C123.736 21.048 124.72 20.904 125.704 20.76C126.64 20.616 127.576 20.712 128.56 21C130.072 21.744 130.576 22.344 130.144 22.704C129.256 23.424 128.752 24.24 128.68 25.176C128.68 25.2 128.68 25.224 128.68 25.248C128.68 25.248 128.68 25.248 128.728 25.248C130.144 25.248 130.984 25.2 131.296 25.056C131.44 25.008 131.536 25.152 131.656 25.44C131.752 25.704 131.896 25.92 132.112 26.064C132.304 26.208 132.376 26.544 132.328 27.072C132.28 27.624 132.088 27.816 131.752 27.6C129.544 27 126.928 26.808 123.88 27ZM124 24C124.144 23.16 124.216 22.512 124.216 22.056C123.736 22.152 123.328 22.224 122.944 22.272C122.752 22.56 122.632 22.896 122.632 23.232C122.584 23.712 122.536 24.24 122.512 24.744C122.488 25.08 122.512 25.416 122.68 25.68C122.968 25.632 123.28 25.584 123.616 25.536C123.76 25.224 123.88 24.696 124 24ZM125.32 23.544C125.128 24.072 124.984 24.504 124.936 24.816C124.84 24.984 124.84 25.176 124.936 25.416C125.368 25.392 125.776 25.368 126.256 25.344C126.808 24.384 127.12 23.664 127.216 23.256C127.264 22.776 127.24 22.464 127.192 22.272C127 21.936 126.424 21.816 125.488 21.912C125.656 22.056 125.704 22.224 125.632 22.416C125.512 22.824 125.392 23.232 125.32 23.544ZM121.36 25.848C121.528 25.512 121.6 25.152 121.552 24.696C121.504 24.384 121.48 24.024 121.432 23.592C121.336 23.208 121.168 22.896 120.952 22.704C120.448 22.896 120.088 23.112 119.896 23.328C119.656 24.192 119.704 25.032 120.04 25.848C120.04 25.896 120.088 25.968 120.184 26.016C120.544 25.968 120.928 25.92 121.36 25.848ZM117.88 14.208C119.704 12.288 121.168 10.2 122.272 7.944C122.368 7.68 122.44 7.464 122.512 7.248C122.56 7.032 122.8 7.008 123.28 7.152C123.64 7.32 123.976 7.488 124.312 7.704C124.576 7.944 124.624 8.112 124.48 8.184C124.24 8.28 124.096 8.424 124.072 8.592C123.64 9.072 123.736 9.48 124.384 9.816C125.728 10.92 127.384 12.096 129.328 13.344C130.456 14.112 131.536 14.64 132.592 14.952C133.624 15.264 134.416 15.552 134.968 15.84C135.616 16.128 135.544 16.368 134.8 16.488C133.672 16.728 132.592 16.872 131.584 16.896C130.552 16.92 130 16.776 129.904 16.488C129.76 16.224 129.616 15.912 129.52 15.576C129.256 14.952 128.608 14.376 127.648 13.848C126.664 13.344 125.848 12.792 125.224 12.24C124.552 11.688 123.904 11.328 123.256 11.088C122.536 10.872 121.864 11.232 121.264 12.144C120.424 13.128 119.632 13.92 118.936 14.496C118.192 15.096 117.808 15.6 117.856 16.056C117.808 16.464 117.544 16.776 117.136 17.016C116.608 17.28 116.104 17.496 115.6 17.712C115.048 17.952 114.448 18.072 113.776 18.072C113.032 18.12 112.984 17.904 113.68 17.448C115.84 15.96 117.232 14.88 117.88 14.208Z" fill="#C4302B"/>
<g clip-path="url(#clip0_272_17)">
<path d="M28 0H7C3.13401 0 0 3.13401 0 7V28C0 31.866 3.13401 35 7 35H28C31.866 35 35 31.866 35 28V7C35 3.13401 31.866 0 28 0Z" fill="#C4302B"/>
<path d="M8.75 10.5C8.75 9.53351 9.53351 8.75 10.5 8.75H24.5C25.4665 8.75 26.25 9.53351 26.25 10.5V21C26.25 21.9665 25.4665 22.75 24.5 22.75H10.5C9.53351 22.75 8.75 21.9665 8.75 21V10.5Z" fill="#E4C06A"/>
<path d="M11.1992 12.9508C11.1992 12.1776 11.826 11.5508 12.5992 11.5508H22.3992C23.1724 11.5508 23.7992 12.1776 23.7992 12.9508V18.5508C23.7992 19.324 23.1724 19.9508 22.3992 19.9508H12.5992C11.826 19.9508 11.1992 19.324 11.1992 18.5508V12.9508Z" fill="#FAF5EB"/>
<path d="M17.5 11.5508V19.9508" stroke="#C4302B" stroke-width="2" stroke-linecap="round"/>
<path d="M11.1992 15.75H23.7992" stroke="#C4302B" stroke-width="2" stroke-linecap="round"/>
<path d="M14 25.5496C14 25.163 14.3134 24.8496 14.7 24.8496H20.3C20.6866 24.8496 21 25.163 21 25.5496C21 25.9362 20.6866 26.2496 20.3 26.2496H14.7C14.3134 26.2496 14 25.9362 14 25.5496Z" fill="#E4C06A"/>
<path d="M12.2492 16.7992C12.8291 16.7992 13.2992 16.3291 13.2992 15.7492C13.2992 15.1693 12.8291 14.6992 12.2492 14.6992C11.6693 14.6992 11.1992 15.1693 11.1992 15.7492C11.1992 16.3291 11.6693 16.7992 12.2492 16.7992Z" fill="#C4302B"/>
<path d="M22.7492 16.7992C23.3291 16.7992 23.7992 16.3291 23.7992 15.7492C23.7992 15.1693 23.3291 14.6992 22.7492 14.6992C22.1693 14.6992 21.6992 15.1693 21.6992 15.7492C21.6992 16.3291 22.1693 16.7992 22.7492 16.7992Z" fill="#C4302B"/>
<path d="M17.4992 16.7992C18.0791 16.7992 18.5492 16.3291 18.5492 15.7492C18.5492 15.1693 18.0791 14.6992 17.4992 14.6992C16.9193 14.6992 16.4492 15.1693 16.4492 15.7492C16.4492 16.3291 16.9193 16.7992 17.4992 16.7992Z" fill="#C4302B"/>
<path d="M8.75 26.25H26.25" stroke="#E4C06A" stroke-width="2" stroke-linecap="round" stroke-dasharray="4 4"/>
<path d="M10.5 8.74961C10.5 7.97642 11.1268 7.34961 11.9 7.34961H23.1C23.8732 7.34961 24.5 7.97642 24.5 8.74961H10.5Z" fill="#E4C06A"/>
<path d="M14 8.75039V7.35039C14 6.96378 14.3134 6.65039 14.7 6.65039H20.3C20.6866 6.65039 21 6.96378 21 7.35039V8.75039" stroke="#C4302B" stroke-width="2"/>
</g>
<defs>
<clipPath id="clip0_272_17">
<rect width="35" height="35" fill="white"/>
</clipPath>
</defs>
</svg>
