<svg width="100" height="100" viewBox="0 0 100 100" fill="none" xmlns="http://www.w3.org/2000/svg">
  <circle cx="50" cy="50" r="45" fill="#C8102E"/>
  <path d="M50 10C27.91 10 10 27.91 10 50C10 72.09 27.91 90 50 90C72.09 90 90 72.09 90 50C90 27.91 72.09 10 50 10ZM50 85C30.67 85 15 69.33 15 50C15 30.67 30.67 15 50 15C69.33 15 85 30.67 85 50C85 69.33 69.33 85 50 85Z" fill="#F9DB6D"/>
  <path d="M50 25C36.19 25 25 36.19 25 50C25 63.81 36.19 75 50 75C63.81 75 75 63.81 75 50C75 36.19 63.81 25 50 25ZM50 70C38.95 70 30 61.05 30 50C30 38.95 38.95 30 50 30C61.05 30 70 38.95 70 50C70 61.05 61.05 70 50 70Z" fill="#F9DB6D"/>
  <path d="M40 45H35V55H40V45Z" fill="#F9DB6D"/>
  <path d="M50 35H45V65H50V35Z" fill="#F9DB6D"/>
  <path d="M60 40H55V60H60V40Z" fill="#F9DB6D"/>
  <path d="M70 45H65V55H70V45Z" fill="#F9DB6D"/>
</svg>
